<svg width="33" height="33" viewBox="0 0 33 33" fill="none" xmlns="http://www.w3.org/2000/svg">
<path d="M16.5 2.75C24.0817 2.75 30.25 8.91825 30.25 16.5C30.25 24.0817 24.0817 30.25 16.5 30.25C8.91825 30.25 2.75 24.0817 2.75 16.5C2.75 8.91825 8.91825 2.75 16.5 2.75ZM16.5 0C7.38788 0 0 7.38788 0 16.5C0 25.6121 7.38788 33 16.5 33C25.6121 33 33 25.6121 33 16.5C33 7.38788 25.6121 0 16.5 0ZM14.6987 10.3483C14.5626 9.23863 15.4248 8.25 16.5523 8.25C17.6124 8.25 18.4456 9.1795 18.3122 10.2451L17.2714 18.568C17.2232 18.9571 16.8919 19.25 16.5 19.25C16.1081 19.25 15.7767 18.9571 15.7272 18.568L14.6987 10.3483V10.3483ZM16.5 25.0938C15.5513 25.0938 14.7812 24.3237 14.7812 23.375C14.7812 22.4263 15.5513 21.6562 16.5 21.6562C17.4487 21.6562 18.2188 22.4263 18.2188 23.375C18.2188 24.3237 17.4487 25.0938 16.5 25.0938Z" fill="#D02424"/>
</svg>
