<svg width="30" height="30" fill="none" xmlns="http://www.w3.org/2000/svg"><path d="M15 2.5c6.892 0 12.5 5.607 12.5 12.5 0 6.892-5.608 12.5-12.5 12.5-6.893 0-12.5-5.608-12.5-12.5C2.5 8.107 8.107 2.5 15 2.5zM15 0C6.716 0 0 6.716 0 15c0 8.284 6.716 15 15 15 8.284 0 15-6.716 15-15 0-8.284-6.716-15-15-15zm-1.637 9.408A1.699 1.699 0 0115.046 7.5c.964 0 1.722.845 1.6 1.814L15.7 16.88a.707.707 0 01-1.404 0l-.934-7.472zM15 22.813a1.563 1.563 0 11.001-3.127A1.563 1.563 0 0115 22.813z" fill="#D02424"/></svg>