<svg width="33" height="33" viewBox="0 0 33 33" fill="none" xmlns="http://www.w3.org/2000/svg">
<path d="M16.5 2.75C24.0817 2.75 30.25 8.91825 30.25 16.5C30.25 24.0817 24.0817 30.25 16.5 30.25C8.91825 30.25 2.75 24.0817 2.75 16.5C2.75 8.91825 8.91825 2.75 16.5 2.75ZM16.5 0C7.38788 0 0 7.38788 0 16.5C0 25.6121 7.38788 33 16.5 33C25.6121 33 33 25.6121 33 16.5C33 7.38788 25.6121 0 16.5 0ZM25.0938 12.2251L23.1399 10.2878L14.7455 18.8375L10.5133 14.7991L8.59375 16.7736L14.7812 22.7122L25.0938 12.2251Z" fill="white"/>
</svg>
