<svg width="30" height="30" viewBox="0 0 30 30" fill="none" xmlns="http://www.w3.org/2000/svg">
<path d="M15 2.5C21.8925 2.5 27.5 8.1075 27.5 15C27.5 21.8925 21.8925 27.5 15 27.5C8.1075 27.5 2.5 21.8925 2.5 15C2.5 8.1075 8.1075 2.5 15 2.5ZM15 0C6.71625 0 0 6.71625 0 15C0 23.2838 6.71625 30 15 30C23.2838 30 30 23.2838 30 15C30 6.71625 23.2838 0 15 0ZM13.3625 9.4075C13.2387 8.39875 14.0225 7.5 15.0475 7.5C16.0112 7.5 16.7687 8.345 16.6475 9.31375L15.7013 16.88C15.6575 17.2337 15.3562 17.5 15 17.5C14.6438 17.5 14.3425 17.2337 14.2975 16.88L13.3625 9.4075ZM15 22.8125C14.1375 22.8125 13.4375 22.1125 13.4375 21.25C13.4375 20.3875 14.1375 19.6875 15 19.6875C15.8625 19.6875 16.5625 20.3875 16.5625 21.25C16.5625 22.1125 15.8625 22.8125 15 22.8125Z" fill="#D02424"/>
</svg>
