<svg width="150" height="114" viewBox="0 0 150 114" fill="none" xmlns="http://www.w3.org/2000/svg">
<path d="M150 0L145.356 12.5604H133.3L111.588 87.9227H28.8437L0 18.8406H105.075L101.55 31.401H18.8L37.1563 75.3623H102.331L123.781 0H150V0ZM53.125 94.2029C47.95 94.2029 43.75 98.4232 43.75 103.623C43.75 108.829 47.95 113.043 53.125 113.043C58.3 113.043 62.5 108.829 62.5 103.623C62.5 98.4232 58.3 94.2029 53.125 94.2029ZM96.25 50.2415L84.375 94.2029C79.2 94.2029 75 98.4169 75 103.623C75 108.829 79.2 113.043 84.375 113.043C89.55 113.043 93.75 108.829 93.75 103.623C93.75 98.4232 89.55 94.2029 84.375 94.2029L96.25 50.2415Z" fill="#B81C22"/>
</svg>
