<svg width="150" height="137" viewBox="0 0 150 137" fill="none" xmlns="http://www.w3.org/2000/svg">
<path fill-rule="evenodd" clip-rule="evenodd" d="M150 44.7078C150 42.7332 149.213 40.8393 147.806 39.436C146.394 38.0389 144.487 37.2565 142.5 37.2565H101.25C99.2625 37.2565 97.3562 38.0389 95.9437 39.436C94.5375 40.8393 93.75 42.7332 93.75 44.7078V129.156C93.75 131.13 94.5375 133.024 95.9437 134.428C97.3562 135.825 99.2625 136.607 101.25 136.607H142.5C144.487 136.607 146.394 135.825 147.806 134.428C149.213 133.024 150 131.13 150 129.156V44.7078V44.7078ZM81.25 136.607H31.25L47.4937 117.979H81.25V136.607ZM121.875 130.398C118.419 130.398 115.625 127.616 115.625 124.188C115.625 120.761 118.419 117.979 121.875 117.979C125.325 117.979 128.119 120.761 128.119 124.188C128.119 127.616 125.325 130.398 121.875 130.398ZM143.75 111.769V55.7357H100V111.769H143.75ZM131.25 24.8377H118.75V12.4188H12.5V93.1412H81.25V105.56H0V0H131.25V24.8377ZM128.125 49.6753C129.85 49.6753 131.25 48.2844 131.25 46.5706C131.25 44.8568 129.85 43.4659 128.125 43.4659H115.625C113.9 43.4659 112.5 44.8568 112.5 46.5706C112.5 48.2844 113.9 49.6753 115.625 49.6753H128.125Z" fill="#B81C22"/>
</svg>
