<svg width="150" height="150" viewBox="0 0 150 150" fill="none" xmlns="http://www.w3.org/2000/svg">
<path fill-rule="evenodd" clip-rule="evenodd" d="M150 118.75H143.75V105C132.169 131.481 105.731 150 75 150C33.6062 150 0 116.394 0 75H6.25C6.25 112.944 37.0562 143.75 75 143.75C104.125 143.75 129.044 125.6 139.056 100H125V93.75H150V118.75V118.75ZM81.025 118.75H69.2375C67.1125 112.769 66.5063 108.931 61.8813 107.012H61.875C57.2312 105.087 54.0562 107.394 48.3625 110.1L40.0313 101.769C42.7 96.15 45.0563 92.925 43.1188 88.25C41.1938 83.625 37.3312 83.0062 31.3812 80.8937V69.1063C37.3437 66.9875 41.1938 66.375 43.1188 61.7437C45.0438 57.1 42.7438 53.9437 40.0313 48.2313L48.3625 39.9C54.1 42.625 57.2437 44.9062 61.875 42.9875L61.8813 42.9812C66.5063 41.0625 67.1188 37.2063 69.2375 31.25H81.025C83.15 37.2375 83.7562 41.0625 88.3812 42.9812L88.3875 42.9875C93.0313 44.9125 96.2125 42.6 101.9 39.9L110.231 48.2313C107.512 53.9625 105.225 57.1125 107.144 61.7375V61.7437C109.062 66.3625 112.862 66.9625 118.881 69.1063V80.8937C112.925 83.0062 109.062 83.625 107.144 88.2563C105.219 92.9 107.519 96.0625 110.231 101.769L101.9 110.1C96.15 107.362 93.025 105.088 88.4188 107C83.7563 108.938 83.1437 112.788 81.025 118.75V118.75ZM75.1312 89.5813C67.075 89.5813 60.55 83.0563 60.55 75C60.55 66.9437 67.075 60.4125 75.1312 60.4125C83.1875 60.4125 89.7125 66.9437 89.7125 75C89.7125 83.0563 83.1875 89.5813 75.1312 89.5813ZM25 56.25H0V31.25H6.25V45C17.8313 18.5187 44.2688 0 75 0C116.394 0 150 33.6062 150 75H143.75C143.75 37.0562 112.944 6.25 75 6.25C45.875 6.25 20.9563 24.4 10.9438 50H25V56.25V56.25Z" fill="#B81C22"/>
</svg>
