<svg width="150" height="136" viewBox="0 0 150 136" fill="none" xmlns="http://www.w3.org/2000/svg">
<path d="M142.53 0H7.46953C3.35098 0 0 3.35098 0 7.46953V127.591C0 131.71 3.35098 135.061 7.46953 135.061H142.53C146.649 135.061 150 131.71 150 127.591V7.46953C150 3.35098 146.649 0 142.53 0ZM124.39 15.0914C129.021 15.0914 132.774 18.8452 132.774 23.4756C132.774 28.1063 129.021 31.8598 124.39 31.8598C119.76 31.8598 116.006 28.1063 116.006 23.4756C116.006 18.8452 119.76 15.0914 124.39 15.0914ZM97.8659 15.0914C102.496 15.0914 106.25 18.8452 106.25 23.4756C106.25 28.1063 102.496 31.8598 97.8659 31.8598C93.2356 31.8598 89.4817 28.1063 89.4817 23.4756C89.4817 18.8452 93.2356 15.0914 97.8659 15.0914ZM71.3414 15.0914C75.9721 15.0914 79.7256 18.8452 79.7256 23.4756C79.7256 28.1063 75.9721 31.8598 71.3414 31.8598C66.711 31.8598 62.9572 28.1063 62.9572 23.4756C62.9572 18.8452 66.711 15.0914 71.3414 15.0914ZM137.5 122.561H12.5001V43.7499H137.5V122.561V122.561Z" fill="#B81C22"/>
<path d="M91.9202 56.9124H25.6094V70.2747H91.9202V56.9124Z" fill="#B81C22"/>
<path d="M124.39 83.741H25.6094V97.1033H124.39V83.741Z" fill="#B81C22"/>
</svg>
