<svg width="150" height="163" viewBox="0 0 150 163" fill="none" xmlns="http://www.w3.org/2000/svg">
<path d="M27.2727 135.638V149.202H13.6364V135.638H27.2727ZM40.9091 122.074H0V162.766H40.9091V122.074ZM81.8182 115.293V149.202H68.1818V115.293H81.8182ZM95.4545 101.729H54.5455V162.766H95.4545V101.729ZM136.364 88.1649V149.202H122.727V88.1649H136.364ZM150 74.6011H109.091V162.766H150V74.6011ZM150 0L109.091 8.28072L120.791 19.8642L74.0864 65.5269L53.625 45.1676L0.163637 98.0461L9.77727 107.663L53.5977 64.3265L73.9909 84.6247L130.445 29.4403L141.811 40.6983L150 0V0Z" fill="#B81C22"/>
</svg>
