<svg width="150" height="150" fill="none" xmlns="http://www.w3.org/2000/svg"><path fill-rule="evenodd" clip-rule="evenodd" d="M150 118.75h-6.25V105c-11.581 26.481-38.019 45-68.75 45-41.394 0-75-33.606-75-75h6.25c0 37.944 30.806 68.75 68.75 68.75 29.125 0 54.044-18.15 64.056-43.75H125v-6.25h25v25zm-68.975 0H69.237c-2.124-5.981-2.73-9.819-7.356-11.738h-.006c-4.644-1.925-7.819.382-13.513 3.088l-8.33-8.331c2.668-5.619 5.024-8.844 3.087-13.519-1.925-4.625-5.788-5.244-11.738-7.356V69.106c5.963-2.118 9.813-2.731 11.738-7.362 1.925-4.644-.375-7.8-3.088-13.513l8.331-8.331c5.738 2.725 8.882 5.006 13.513 3.087l.006-.006c4.625-1.919 5.238-5.775 7.356-11.731h11.788c2.125 5.987 2.731 9.813 7.356 11.731l.007.006c4.643 1.925 7.825-.387 13.512-3.087l8.331 8.331c-2.719 5.731-5.006 8.881-3.087 13.506v.007c1.918 4.618 5.718 5.219 11.737 7.362v11.788c-5.956 2.112-9.819 2.731-11.737 7.362-1.925 4.644.375 7.806 3.087 13.513L101.9 110.1c-5.75-2.738-8.875-5.012-13.481-3.1-4.663 1.938-5.275 5.788-7.394 11.75zm-5.894-29.169c-8.056 0-14.581-6.525-14.581-14.581s6.525-14.587 14.581-14.587S89.713 66.942 89.713 75c0 8.056-6.525 14.581-14.582 14.581zM25 56.25H0v-25h6.25V45C17.831 18.519 44.269 0 75 0c41.394 0 75 33.606 75 75h-6.25c0-37.944-30.806-68.75-68.75-68.75C45.875 6.25 20.956 24.4 10.944 50H25v6.25z" fill="#B81C22"/></svg>