<svg width="150" height="137" fill="none" xmlns="http://www.w3.org/2000/svg"><path fill-rule="evenodd" clip-rule="evenodd" d="M150 44.708a7.442 7.442 0 00-2.194-5.272 7.543 7.543 0 00-5.306-2.18h-41.25a7.544 7.544 0 00-5.306 2.18 7.445 7.445 0 00-2.194 5.272v84.448c0 1.974.787 3.868 2.194 5.272a7.544 7.544 0 005.306 2.179h41.25a7.543 7.543 0 005.306-2.179 7.445 7.445 0 002.194-5.272V44.708zm-68.75 91.899h-50l16.244-18.628H81.25v18.628zm40.625-6.209c-3.456 0-6.25-2.782-6.25-6.21 0-3.427 2.794-6.209 6.25-6.209 3.45 0 6.244 2.782 6.244 6.209 0 3.428-2.794 6.21-6.244 6.21zm21.875-18.629V55.736H100v56.033h43.75zm-12.5-86.931h-12.5v-12.42H12.5v80.723h68.75v12.419H0V0h131.25v24.838zm-3.125 24.837c1.725 0 3.125-1.39 3.125-3.104 0-1.714-1.4-3.105-3.125-3.105h-12.5c-1.725 0-3.125 1.39-3.125 3.105 0 1.713 1.4 3.104 3.125 3.104h12.5z" fill="#B81C22"/></svg>