<svg width="150" height="163" fill="none" xmlns="http://www.w3.org/2000/svg"><path d="M27.273 135.638v13.564H13.636v-13.564h13.637zm13.636-13.564H0v40.692h40.91v-40.692zm40.91-6.781v33.909H68.181v-33.909h13.636zm13.635-13.564H54.546v61.037h40.908v-61.037zm40.91-13.564v61.037h-13.637V88.165h13.637zM150 74.6h-40.909v88.165H150V74.601zM150 0l-40.909 8.28 11.7 11.584-46.705 45.663-20.461-20.36L.164 98.048l9.613 9.616 43.82-43.337 20.394 20.299 56.454-55.185 11.366 11.258L150 0z" fill="#B81C22"/></svg>