<svg width="150" height="136" fill="none" xmlns="http://www.w3.org/2000/svg"><path d="M142.53 0H7.47C3.35 0 0 3.351 0 7.47v120.12c0 4.119 3.351 7.47 7.47 7.47h135.06c4.119 0 7.47-3.351 7.47-7.47V7.47c0-4.12-3.351-7.47-7.47-7.47zm-18.14 15.091a8.384 8.384 0 018.384 8.385 8.384 8.384 0 11-8.384-8.384zm-26.524 0a8.384 8.384 0 110 16.77 8.384 8.384 0 010-16.77zm-26.525 0a8.384 8.384 0 110 16.769 8.384 8.384 0 010-16.769zm66.159 107.47h-125V43.75h125v78.811z" fill="#B81C22"/><path d="M91.92 56.912H25.61v13.363h66.31V56.912zm32.47 26.829H25.61v13.362h98.78V83.741z" fill="#B81C22"/></svg>